<svg width="34" height="35" viewBox="0 0 34 35" fill="none" xmlns="http://www.w3.org/2000/svg">
<rect y="0.5" width="34" height="34" rx="3" fill="#004289"/>
<path d="M24.7083 12.792C24.8014 12.8848 24.8753 12.9952 24.9257 13.1167C24.9761 13.2382 25.0021 13.3684 25.0021 13.5C25.0021 13.6315 24.9761 13.7617 24.9257 13.8832C24.8753 14.0047 24.8014 14.1151 24.7083 14.208L15.7083 23.208C15.6154 23.3011 15.505 23.375 15.3836 23.4254C15.2621 23.4758 15.1318 23.5017 15.0003 23.5017C14.8688 23.5017 14.7385 23.4758 14.617 23.4254C14.4955 23.375 14.3852 23.3011 14.2923 23.208L10.2923 19.208C10.1045 19.0202 9.99902 18.7655 9.99902 18.5C9.99902 18.2344 10.1045 17.9797 10.2923 17.792C10.4801 17.6042 10.7347 17.4987 11.0003 17.4987C11.2658 17.4987 11.5205 17.6042 11.7083 17.792L15.0003 21.086L23.2923 12.792C23.3852 12.6988 23.4955 12.6249 23.617 12.5745C23.7385 12.5241 23.8688 12.4982 24.0003 12.4982C24.1318 12.4982 24.2621 12.5241 24.3836 12.5745C24.505 12.6249 24.6154 12.6988 24.7083 12.792Z" fill="white"/>
</svg>
