<svg width="60" height="61" viewBox="0 0 60 61" fill="none" xmlns="http://www.w3.org/2000/svg">
<path d="M55 9.00003V48H4C3.20435 48 2.44129 47.684 1.87868 47.1214C1.31607 46.5587 1 45.7957 1 45V9.00003C1.01011 8.20752 1.32942 7.45032 1.88986 6.88989C2.45029 6.32945 3.20749 6.01014 4 6.00003H52C52.7927 6.00963 53.5502 6.32878 54.1107 6.88932C54.6713 7.44987 54.9904 8.20736 55 9.00003Z" fill="#D0E0EF"/>
<path d="M30.3502 27L55.0002 48H4.0002C3.23836 48.0025 2.50461 47.7126 1.9502 47.19L25.6502 27H30.3502Z" fill="#C1D2E0"/>
<path d="M54.0502 6.81002L30.0702 27.24C29.4914 27.7292 28.758 27.9975 28.0002 27.9975C27.2424 27.9975 26.509 27.7292 25.9302 27.24L1.9502 6.81002C2.50461 6.28749 3.23836 5.99757 4.0002 6.00002H52.0002C52.762 5.99757 53.4958 6.28749 54.0502 6.81002Z" fill="#E9F4FF"/>
<path d="M47 54.5C53.6274 54.5 59 49.1274 59 42.5C59 35.8726 53.6274 30.5 47 30.5C40.3726 30.5 35 35.8726 35 42.5C35 49.1274 40.3726 54.5 47 54.5Z" fill="#0F5096"/>
<path d="M44.1793 49.5C43.8083 49.4999 43.4526 49.3481 43.1903 49.0779L40.3927 46.1969C40.1379 45.9252 39.9969 45.5613 40.0001 45.1836C40.0032 44.8059 40.1504 44.4446 40.4097 44.1775C40.6691 43.9104 41.0199 43.7589 41.3867 43.7557C41.7534 43.7524 42.1068 43.8976 42.3706 44.16L44.1002 45.9412L51.5098 37.0395C51.6271 36.8888 51.7726 36.764 51.9376 36.6724C52.1027 36.5808 52.2839 36.5243 52.4706 36.5063C52.6573 36.4883 52.8456 36.5091 53.0243 36.5675C53.203 36.6259 53.3685 36.7207 53.5109 36.8463C53.6533 36.9718 53.7698 37.1256 53.8533 37.2984C53.9369 37.4713 53.9859 37.6597 53.9974 37.8524C54.0089 38.0451 53.9826 38.2382 53.9201 38.4203C53.8577 38.6023 53.7604 38.7696 53.6339 38.9122L45.241 48.9958C45.1109 49.155 44.9483 49.2828 44.7648 49.3699C44.5812 49.457 44.3813 49.5015 44.1793 49.5Z" fill="white"/>
</svg>
