<svg width="150" height="30" viewBox="0 0 150 30" fill="none" xmlns="http://www.w3.org/2000/svg">
<g clip-path="url(#clip0_101_1195)">
<path d="M150 26.9996C150 28.6488 148.647 29.9978 147 29.9978H34.5062C32.8525 29.9978 31.5035 28.6488 31.5035 26.9996V2.99821C31.5035 1.34897 32.8525 0 34.5062 0H147.002C148.649 0 150.002 1.34897 150.002 2.99821V26.9996" fill="#004289"/>
<path d="M99.4092 15.2599L99.3756 15.2801L99.3845 15.233L99.4092 15.2599L109.67 7.42153L111.53 6.00085H109.193H102.076L101.856 6.1846L94.2799 12.562V12.5732L94.2732 12.5664L94.2799 12.562V6.00085H87.9272V25.4959H94.2799V18.6435L94.2598 18.6278L94.2799 18.6234V18.6435L101.321 25.2853L101.549 25.4959H101.858H109.441H111.613L99.4092 15.2599Z" fill="white"/>
<path d="M114.438 6.00085H113.818V25.4959H119.213V6.00085H114.438Z" fill="white"/>
<path d="M50.0642 6.00085H36.0054V10.8007H44.442V25.4959H50.0642V10.8007H58.5054V6.00085H50.0642Z" fill="white"/>
<path d="M134.498 4.56906H134.971L135.24 4.17468L136.107 2.89293L137.048 1.49915H131.829L131.569 1.91145L130.745 3.1932L129.866 4.56906H134.498Z" fill="white"/>
<path d="M139.531 6.0009H127.383C123.603 6.0009 121.421 6.83672 121.421 11.0965V20.4026C121.421 24.6669 123.603 25.4982 127.383 25.4982H139.531C143.313 25.4982 145.503 24.6669 145.503 20.4026V17.3909L138.939 17.3865V20.4362L138.921 20.4564H127.655V20.4765L127.632 20.4564H127.655V10.608H138.939V10.5968L138.953 10.608H138.939V13.6622L144.593 13.651L145.503 13.6466V11.0943C145.503 6.83672 143.313 5.99866 139.531 5.99866" fill="white"/>
<path d="M79.6967 6.0009H66.2048C62.4626 6.0009 60.4414 6.79639 60.4414 10.9934V20.5079C60.4414 24.705 62.4626 25.5004 66.2048 25.5004H79.6967C83.4389 25.5004 85.4646 24.705 85.4646 20.5079V10.9912C85.4646 6.79415 83.4389 5.99866 79.6967 5.99866M79.5824 20.8082V20.8037H66.4154V10.4691H79.5824V20.8037H79.5869L79.5824 20.8082Z" fill="white"/>
<path d="M30.0045 26.9996C30.0045 28.6488 28.6578 29.9978 27.004 29.9978H3.00269C1.35345 29.9978 0 28.6488 0 26.9996V2.99821C0 1.34897 1.35345 0 3.00269 0H27.0018C28.6555 0 30.0022 1.34897 30.0022 2.99821V26.9996" fill="#004289"/>
<path d="M5.25024 15C5.25024 9.62655 9.62879 5.25024 15.0023 5.25024C20.3757 5.25024 24.752 9.62655 24.752 15C24.752 20.3735 20.3802 24.7476 15.0023 24.7476C9.62431 24.7476 5.25024 20.3757 5.25024 15Z" fill="white"/>
<path d="M6.7561 15C6.7561 10.4534 10.4557 6.74707 15.0045 6.74707C19.5534 6.74707 23.2552 10.4511 23.2552 15C23.2552 19.5488 19.5556 23.2484 15.0045 23.2484C10.4534 23.2484 6.7561 19.5488 6.7561 15Z" fill="#DC0814"/>
</g>
<defs>
<clipPath id="clip0_101_1195">
<rect width="150" height="29.9978" fill="white"/>
</clipPath>
</defs>
</svg>
