<svg width="60" height="61" viewBox="0 0 60 61" fill="none" xmlns="http://www.w3.org/2000/svg">
<g clip-path="url(#clip0_106_2463)">
<path d="M23.8832 44.073L43.5685 24.3882C47.9932 25.9789 53.0149 24.8853 56.3959 21.5043C60.075 17.8252 61.0445 12.1819 58.807 7.50863L58.5337 6.93688L52.667 12.8036H47.6952V7.83181L53.5619 1.96511L52.9902 1.69183C48.3164 -0.545723 42.6735 0.42382 38.9945 4.10287C35.6134 7.48391 34.5198 12.5051 36.1106 16.9303L16.4258 36.6155C12.0006 35.0243 6.97895 36.1184 3.59837 39.499C-1.19946 44.2968 -1.19946 52.1026 3.59837 56.9004C8.39619 61.6982 16.202 61.6982 20.9998 56.9004C24.3804 53.5198 25.4744 48.4982 23.8832 44.073ZM8.57014 51.9286C6.50654 49.8655 6.507 46.5344 8.57014 44.4708C10.6333 42.4076 13.9644 42.4076 16.028 44.4708C18.0912 46.5344 18.0912 49.8655 16.028 51.9286C13.9644 53.9918 10.6333 53.9922 8.57014 51.9286Z" fill="#BBDCFF"/>
<path d="M20.9998 56.9004C16.202 61.6982 8.39621 61.6982 3.59839 56.9004L8.57016 51.9286C10.6333 53.9922 13.9644 53.9918 16.028 51.9286C18.0912 49.8655 18.0912 46.5344 16.028 44.4708L47.6952 12.8036H52.667L58.5337 6.93689L58.807 7.50864C61.0445 12.1824 60.075 17.8253 56.3959 21.5043C53.0149 24.8853 47.9937 25.9789 43.5685 24.3882L23.8833 44.073C25.4745 48.4982 24.3804 53.5198 20.9998 56.9004Z" fill="#9ABADB"/>
<path d="M10.9221 13.9077L13.4082 11.4216L35.0531 33.0665L32.567 35.5526L10.9221 13.9077Z" fill="#E0F4FF"/>
<path d="M4.69702 0.622009L0.123047 5.19598L9.45593 17.86L17.3611 9.9549L4.69702 0.622009Z" fill="#E0F4FF"/>
<path d="M32.5675 35.5531L10.9226 13.9082L12.1654 12.6649L33.8103 34.3098L32.5675 35.5531Z" fill="#BBDCFF"/>
<path d="M2.41003 2.909L13.4083 13.9077L9.45593 17.86L0.123047 5.19598L2.41003 2.909Z" fill="#BBDCFF"/>
<path d="M40.0255 33.067L36.2965 29.338L28.8386 36.7954L32.5676 40.5244C34.6312 42.588 37.9623 42.5875 40.0255 40.5244C42.0891 38.4612 42.0891 35.1301 40.0255 33.067Z" fill="#7C8388"/>
<path d="M40.0255 40.5244C37.9623 42.5875 34.6312 42.588 32.5676 40.5244L28.8386 36.7954L32.5676 33.067L40.0255 40.5244Z" fill="#575F64"/>
<path d="M57.4268 57.9258C53.9964 61.3563 48.4277 61.3563 44.9972 57.9258L31.3247 44.2533L36.2965 39.2815L40.0254 40.5248L38.7826 36.7959L43.7544 31.8241L57.4268 45.4966C60.8578 48.9271 60.8578 54.4953 57.4268 57.9258Z" fill="#FF5E5B"/>
<path d="M57.4268 57.9258C53.9964 61.3563 48.4277 61.3563 44.9972 57.9258L31.3247 44.2533L36.2965 39.2816L40.0254 40.5248L57.4268 57.9258Z" fill="#ED3E3C"/>
<path d="M36.2961 39.2816L38.7823 36.7959L51.2115 49.2251L48.7258 51.7112L36.2961 39.2816Z" fill="#ED3E3C"/>
<path d="M36.2961 39.2815L37.539 38.0387L49.9686 50.4684L48.7258 51.7112L36.2961 39.2815Z" fill="#D62F2D"/>
</g>
<defs>
<clipPath id="clip0_106_2463">
<rect width="60" height="60" fill="white" transform="translate(0 0.498901)"/>
</clipPath>
</defs>
</svg>
