<svg width="15" height="16" viewBox="0 0 15 16" fill="none" xmlns="http://www.w3.org/2000/svg">
<path d="M1.92971 14.783L1.92972 14.783L1.95149 14.7775L1.95151 14.7775L4.58384 14.1194C4.59896 14.1156 4.61396 14.1119 4.62885 14.1082C4.85159 14.0528 5.04877 14.0037 5.2278 13.9023C5.40683 13.801 5.55035 13.6571 5.71248 13.4947C5.72332 13.4838 5.73425 13.4729 5.74527 13.4618L12.9393 6.26777L12.9393 6.26776L12.9626 6.24448C13.2761 5.93108 13.5461 5.66105 13.7333 5.41573C13.9339 5.15281 14.0858 4.86038 14.0858 4.5C14.0858 4.13961 13.9339 3.84719 13.7333 3.58427C13.5461 3.33894 13.276 3.0689 12.9626 2.7555L12.9393 2.73223L12.5858 3.08579L12.9393 2.73223L12.7678 2.56066L12.7445 2.53738C12.4311 2.22395 12.1611 1.95388 11.9157 1.7667C11.6528 1.5661 11.3604 1.41421 11 1.41421C10.6396 1.41421 10.3472 1.5661 10.0843 1.7667C9.83894 1.95388 9.5689 2.22395 9.2555 2.53739L9.23223 2.56066L2.03816 9.75473C2.02714 9.76576 2.01619 9.77668 2.00533 9.78752C1.84286 9.94965 1.69903 10.0932 1.59766 10.2722C1.4963 10.4512 1.44723 10.6484 1.39179 10.8711C1.38809 10.886 1.38435 10.901 1.38057 10.9162L0.717042 13.5703C0.714826 13.5791 0.712596 13.588 0.710358 13.597C0.671116 13.7537 0.629207 13.921 0.615459 14.0615C0.600323 14.2163 0.603851 14.4773 0.813262 14.6867C1.02267 14.8961 1.28373 14.8997 1.43846 14.8845C1.57899 14.8708 1.74633 14.8289 1.90301 14.7896C1.91195 14.7874 1.92085 14.7852 1.92971 14.783Z" stroke="#585757"/>
</svg>
